<svg id="Logo" xmlns="http://www.w3.org/2000/svg" viewBox="0 0 64 64"><defs><style>.cls-1{fill:#ed5f33;}.cls-2{fill:#fff;}</style></defs><circle class="cls-1" cx="32" cy="32" r="32"/><path class="cls-2" d="M16.25,48.71a.94.94,0,0,1-.37-.07,1,1,0,0,1-.59-.88V16.24a1,1,0,0,1,1.63-.67L32.68,31.32a1,1,0,0,1,0,1.36L16.92,48.43A1,1,0,0,1,16.25,48.71Zm.95-30.16v26.9L30.65,32Z"/><path class="cls-2" d="M33.37,32l-.55,2.16L47.08,48.43a.94.94,0,0,0,.68.28.92.92,0,0,0,.67-.28.94.94,0,0,0,0-1.35Z"/><path class="cls-2" d="M33.35,32h0L48.43,16.92a.94.94,0,0,0,0-1.35,1,1,0,0,0-1.35,0L31.33,31.32a1,1,0,0,0,0,1.36l.67.67Z"/></svg>