<svg id="Logo" xmlns="http://www.w3.org/2000/svg" viewBox="0 0 600 88"><defs><style>.cls-1,.cls-2{fill:#04042f;}.cls-2{font-size:55.03px;font-family:AktivGrotesk-Light, Aktiv Grotesk;font-weight:300;}</style></defs><path class="cls-1" d="M86,79.68,50.16,43.81l0,0-4.21,9.09L79.38,86.32A4.7,4.7,0,0,0,86,79.68Z"/><path class="cls-1" d="M85.55,1.67a4.71,4.71,0,0,0-6.65,0L43.46,37.11h0l-6.65,6.65h0L9.4,71.18V16.35L36.81,43.76l6.65-6.65L8,1.67A4.7,4.7,0,0,0,0,5V82.52a4.7,4.7,0,0,0,2.9,4.34,4.52,4.52,0,0,0,1.8.36A4.69,4.69,0,0,0,8,85.85L85.55,8.32A4.71,4.71,0,0,0,85.55,1.67Z"/><text class="cls-2" transform="translate(139.73 63.64)">DAN COLLINS</text></svg>