<svg id="Logo" xmlns="http://www.w3.org/2000/svg" xmlns:xlink="http://www.w3.org/1999/xlink" viewBox="0 0 64 64"><defs><style>.cls-1{fill:url(#linear-gradient);}.cls-2{fill:url(#linear-gradient-2);}</style><linearGradient id="linear-gradient" x1="18.22" y1="18.9" x2="58.67" y2="58.41" gradientUnits="userSpaceOnUse"><stop offset="0.02" stop-color="#c03121"/><stop offset="0.5" stop-color="#ed5f33"/><stop offset="0.96" stop-color="#ff8b38"/></linearGradient><linearGradient id="linear-gradient-2" x1="-10.96" y1="39.85" x2="33.71" y2="14.95" gradientUnits="userSpaceOnUse"><stop offset="0.04" stop-color="#c03121"/><stop offset="0.5" stop-color="#ed5f33"/><stop offset="0.98" stop-color="#ff8b38"/></linearGradient></defs><path class="cls-1" d="M63,58.12,36.73,31.86h0L33.63,38.5,58.12,63a3.47,3.47,0,0,0,2.44,1A3.45,3.45,0,0,0,63,58.12Z"/><path class="cls-2" d="M62.64,1a3.43,3.43,0,0,0-4.87,0L31.82,27h0L27,31.82h0L6.88,51.9V11.75L27,31.82,31.82,27,5.87,1A3.44,3.44,0,0,0,0,3.44V60.21a3.46,3.46,0,0,0,2.12,3.18,3.61,3.61,0,0,0,1.32.26,3.4,3.4,0,0,0,2.43-1L62.64,5.88A3.43,3.43,0,0,0,62.64,1Z"/></svg>